HIERARCHY
ROOT Hips
{
	OFFSET 0.000000 0.000000 0.000000
	CHANNELS 6 Xposition Yposition Zposition Zrotation Yrotation Xrotation 
	JOINT LHipJoint
	{
		OFFSET 0.000000 0.000000 0.000000
		CHANNELS 3 Zrotation Yrotation Xrotation
		JOINT LeftUpLeg
		{
			OFFSET 1.363060 -1.794630 0.839290
			CHANNELS 3 Zrotation Yrotation Xrotation
			JOINT LeftLeg
			{
				OFFSET 2.448110 -6.726130 0.000000
				CHANNELS 3 Zrotation Yrotation Xrotation
				JOINT LeftFoot
				{
					OFFSET 2.562200 -7.039590 0.000000
					CHANNELS 3 Zrotation Yrotation Xrotation
					JOINT LeftToeBase
					{
						OFFSET 0.157640 -0.433110 2.322550
						CHANNELS 3 Zrotation Yrotation Xrotation
						End Site
						{
							OFFSET 0.000000 0.000000 0.000000
						}
					}
				}
			}
		}
	}
	JOINT RHipJoint
	{
		OFFSET 0.000000 0.000000 0.000000
		CHANNELS 3 Zrotation Yrotation Xrotation
		JOINT RightUpLeg
		{
			OFFSET -1.305520 -1.794630 0.839290
			CHANNELS 3 Zrotation Yrotation Xrotation
			JOINT RightLeg
			{
				OFFSET -2.542530 -6.985550 0.000000
				CHANNELS 3 Zrotation Yrotation Xrotation
				JOINT RightFoot
				{
					OFFSET -2.568260 -7.056230 0.000000
					CHANNELS 3 Zrotation Yrotation Xrotation
					JOINT RightToeBase
					{
						OFFSET -0.164730 -0.452590 2.363150
						CHANNELS 3 Zrotation Yrotation Xrotation
						End Site
						{
							OFFSET 0.000000 0.000000 0.000000
						}
					}
				}
			}
		}
	}
	JOINT LowerBack
	{
		OFFSET 0.000000 0.000000 0.000000
		CHANNELS 3 Zrotation Yrotation Xrotation
		JOINT Spine
		{
			OFFSET 0.028270 2.035590 -0.193380
			CHANNELS 3 Zrotation Yrotation Xrotation
			JOINT Spine1
			{
				OFFSET 0.056720 2.048850 -0.042750
				CHANNELS 3 Zrotation Yrotation Xrotation
				JOINT Neck
				{
					OFFSET 0.000000 0.000000 0.000000
					CHANNELS 3 Zrotation Yrotation Xrotation
					JOINT Neck1
					{
						OFFSET -0.054170 1.746240 0.172020
						CHANNELS 3 Zrotation Yrotation Xrotation
						JOINT Head
						{
							OFFSET 0.104070 1.761360 -0.123970
							CHANNELS 3 Zrotation Yrotation Xrotation
							End Site
							{
								OFFSET 0.000000 0.000000 0.000000
							}
						}
					}
				}
				JOINT LeftShoulder
				{
					OFFSET 0.000000 0.000000 0.000000
					CHANNELS 3 Zrotation Yrotation Xrotation
					JOINT LeftArm
					{
						OFFSET 3.362410 1.200890 -0.311210
						CHANNELS 3 Zrotation Yrotation Xrotation
						JOINT LeftForeArm
						{
							OFFSET 4.983000 -0.000000 -0.000000
							CHANNELS 3 Zrotation Yrotation Xrotation
							JOINT LeftHand
							{
								OFFSET 3.483560 -0.000000 -0.000000
								CHANNELS 3 Zrotation Yrotation Xrotation
								JOINT LeftFingerBase
								{
									OFFSET 0.000000 0.000000 0.000000
									CHANNELS 3 Zrotation Yrotation Xrotation
									JOINT LeftHandIndex1
									{
										OFFSET 0.715260 -0.000000 -0.000000
										CHANNELS 3 Zrotation Yrotation Xrotation
										End Site
										{
											OFFSET 0.000000 0.000000 0.000000
										}
									}
								}
								JOINT LThumb
								{
									OFFSET 0.000000 0.000000 0.000000
									CHANNELS 3 Zrotation Yrotation Xrotation
									End Site
									{
										OFFSET 0.000000 0.000000 0.000000
									}
								}
							}
						}
					}
				}
				JOINT RightShoulder
				{
					OFFSET 0.000000 0.000000 0.000000
					CHANNELS 3 Zrotation Yrotation Xrotation
					JOINT RightArm
					{
						OFFSET -3.136600 1.374050 -0.404650
						CHANNELS 3 Zrotation Yrotation Xrotation
						JOINT RightForeArm
						{
							OFFSET -5.241900 -0.000000 -0.000000
							CHANNELS 3 Zrotation Yrotation Xrotation
							JOINT RightHand
							{
								OFFSET -3.444170 -0.000000 -0.000000
								CHANNELS 3 Zrotation Yrotation Xrotation
								JOINT RightFingerBase
								{
									OFFSET 0.000000 0.000000 0.000000
									CHANNELS 3 Zrotation Yrotation Xrotation
									JOINT RightHandIndex1
									{
										OFFSET -0.622530 -0.000000 -0.000000
										CHANNELS 3 Zrotation Yrotation Xrotation
										End Site
										{
											OFFSET 0.000000 0.000000 0.000000
										}
									}
								}
								JOINT RThumb
								{
									OFFSET 0.000000 0.000000 0.000000
									CHANNELS 3 Zrotation Yrotation Xrotation
									End Site
									{
										OFFSET 0.000000 0.000000 0.000000
									}
								}
							}
						}
					}
				}
			}
		}
	}
}
MOTION
Frames: 6
Frame Time: 0.008333
4.330121 16.100703 -3.544194 -157.058777 74.157793 -140.525095 -13.001513 -0.188056 0.637351 -7.411124 -2.272078 -43.923748 1.528676 4.520267 79.729891 3.838813 20.423759 -25.977265 173.769800 0.000000 -1.289100 7.803951 -1.895684 0.349184 10.762253 0.796062 -24.338324 2.413892 -2.057540 40.922730 -1.614680 -1.821004 -22.704827 1.163000 0.000000 -55.809000 4.219340 -0.708578 -0.666036 -0.031700 -1.045598 -3.427380 -7.146475 -0.950974 -2.044138 11.076938 -9.783732 -8.470862 -3.435458 -0.251000 -0.272215 0.000000 0.000000 0.000000 0.435964 11.210492 0.243696 -75.178255 12.076314 26.956616 -179.931402 -79.609840 179.957337 6.350729 -5.571705 -0.339888 -0.086795 0.522033 0.000000 0.000000 0.000000 0.000000 0.000000 0.000000 0.000000 12.084720 -2.578509 -0.399181 72.645787 5.473568 31.869502 179.600668 81.479032 179.971029 -4.925968 8.540415 -0.400654 0.113222 -0.603501 -0.000000 0.000000 0.000000 0.000000 0.000000 0.000000 0.000000 
4.546910 16.183794 -3.633467 -159.044552 73.745022 -142.418195 -12.714371 -0.231227 0.845943 -7.967766 -2.581318 -44.759719 1.250688 4.335971 77.296895 3.814020 19.778328 -26.105669 173.903100 0.000000 -1.248600 7.922504 -1.950336 0.310920 10.117180 0.178644 -22.588177 2.420764 -1.878169 38.896002 -1.503811 -1.727961 -21.408534 1.025500 -0.000000 -56.936500 3.756538 -0.538629 -0.869212 -0.132234 -0.851741 -3.464926 -7.166918 -0.753995 -2.029572 10.996244 -9.794828 -8.459863 -3.368106 -0.246585 -0.264635 0.000000 0.000000 0.000000 0.611447 11.464453 0.205830 -74.587386 12.709991 27.457115 -179.881119 -78.510586 179.964245 5.179538 -5.741588 -0.284172 -0.057504 0.529115 0.000000 0.000000 0.000000 0.000000 0.000000 0.000000 0.000000 11.521962 -2.403133 -0.440990 73.423864 5.975911 32.401241 179.553559 80.521630 179.973548 -4.440505 8.717972 -0.368818 0.103748 -0.623419 -0.000000 0.000000 0.000000 0.000000 0.000000 0.000000 0.000000 
4.766839 16.276098 -3.730087 -160.843462 73.289245 -144.107705 -12.426627 -0.258700 1.079409 -8.476875 -2.907294 -45.451926 0.963364 4.123536 74.465529 3.797331 19.165700 -26.051033 174.092500 -0.000000 -0.937400 8.032761 -2.023494 0.277863 9.505456 -0.459891 -20.832622 2.410414 -1.700187 36.736089 -1.365674 -1.624510 -19.698351 0.855300 0.000000 -58.512901 3.339724 -0.370077 -1.107327 -0.225847 -0.663942 -3.506756 -7.195168 -0.562871 -2.001352 10.932640 -9.848088 -8.463754 -3.300079 -0.242035 -0.260304 0.000000 0.000000 0.000000 0.764631 11.737054 0.157620 -73.986170 13.295015 27.924814 -179.836167 -77.537351 179.969975 4.212701 -5.890001 -0.235542 -0.032520 0.534347 0.000000 0.000000 0.000000 0.000000 0.000000 0.000000 0.000000 10.985591 -2.284626 -0.488762 74.145541 6.410871 32.894059 179.505574 79.566823 179.975967 -4.004830 8.875028 -0.338779 0.095191 -0.642357 -0.000000 0.000000 0.000000 0.000000 0.000000 0.000000 0.000000 
4.989311 16.376751 -3.833772 -162.460254 72.792215 -145.618919 -12.141105 -0.267924 1.331163 -8.936748 -3.242138 -45.955565 0.672323 3.882527 71.224903 3.794336 18.625209 -25.816204 174.322100 0.000000 -0.415601 8.137070 -2.116295 0.238218 8.927691 -1.148653 -19.060418 2.381397 -1.529782 34.456438 -1.200085 -1.506519 -17.527664 0.654201 0.000000 -60.580400 2.966991 -0.209192 -1.359872 -0.313337 -0.487444 -3.553297 -7.233120 -0.383426 -1.977879 10.888786 -9.930654 -8.464078 -3.237026 -0.237999 -0.254163 0.000000 0.000000 0.000000 0.887021 11.956042 0.096359 -73.393752 13.920783 28.283645 -179.802060 -76.670479 179.974212 3.482548 -6.011398 -0.197394 -0.012285 0.537257 -0.000000 0.000000 0.000000 0.000000 0.000000 0.000000 0.000000 10.505403 -2.216890 -0.532454 74.791287 6.778312 33.356816 179.457124 78.646825 179.978234 -3.626338 9.014821 -0.311738 0.087948 -0.660078 -0.000000 0.000000 0.000000 0.000000 0.000000 0.000000 0.000000 
5.213783 16.484316 -3.944303 -163.864526 72.253290 -146.934421 -11.864327 -0.259907 1.595665 -9.329795 -3.568821 -46.249902 0.383742 3.613970 67.581060 3.806629 18.172595 -25.410319 -5.417000 0.000001 -0.284900 8.231686 -2.231315 0.186490 8.403223 -1.889235 -17.269615 2.333383 -1.373049 32.073046 -1.012943 -1.384770 -14.861239 0.430300 -0.000000 -63.170400 2.648134 -0.059888 -1.614107 -0.392107 -0.326397 -3.598221 -7.277229 -0.219250 -1.943627 10.867905 -10.035634 -8.470767 -3.179168 -0.234293 -0.249465 0.000000 0.000000 0.000000 0.996392 12.188761 0.025100 -72.835336 14.517399 28.575741 -179.778947 -75.961303 179.976900 3.014520 -6.096367 -0.172106 0.001349 0.537640 0.000000 0.000000 0.000000 0.000000 0.000000 0.000000 0.000000 10.093961 -2.194671 -0.578445 75.350276 7.095326 33.794697 179.409418 77.777625 179.980332 -3.300268 9.144613 -0.287897 0.081876 -0.676417 -0.000000 0.000000 0.000000 0.000000 0.000000 0.000000 0.000000 
5.439578 16.597211 -4.060423 -165.088689 71.688205 -148.097705 -11.595689 -0.233721 1.864032 -9.675744 -3.868017 -46.313552 0.100997 3.317006 63.541822 3.834100 17.809455 -24.852424 -5.131400 0.000000 -1.049300 8.321961 -2.366539 0.119573 7.914803 -2.679925 -15.471340 2.265986 -1.238068 29.628207 -0.811421 -1.252861 -11.699238 0.194700 -0.000000 -66.169200 2.365380 0.074008 -1.855712 -0.465747 -0.182818 -3.643049 -7.329091 -0.072954 -1.916691 10.872000 -10.152055 -8.467628 -3.130156 -0.231408 -0.241791 0.000000 0.000000 0.000000 1.099744 12.365943 -0.056931 -72.327473 15.174550 28.740896 -179.769848 -75.366007 179.978131 2.781079 -6.147620 -0.159387 0.009645 0.535463 -0.000000 0.000000 0.000000 0.000000 0.000000 0.000000 0.000000 9.766583 -2.207486 -0.617323 75.827070 7.362096 34.210479 179.361843 76.974314 179.982343 -3.012416 9.267417 -0.266357 0.076785 -0.691458 -0.000000 0.000000 0.000000 0.000000 0.000000 0.000000 0.000000 
